<svg xmlns="http://www.w3.org/2000/svg" data-name="Layer 1" viewBox="0 0 839.797 523.444"><path fill="#f0f0f0" d="M79.2 506.814a50.8 50.8 0 0 0 13.59 12.63c1.12.71 2.27 1.38 3.44 2h27.53c-.33-.66-.65-1.33-.96-2a95.35 95.35 0 0 1 19.84-109.34c-16.64 5.14-32.02 15.16-42.08 29.37a64.5 64.5 0 0 0-10.23 23 96.3 96.3 0 0 1 7.67-48.41c-13.51 10.99-24.03 26.04-28.04 42.98-4.01 16.95-1.1 35.76 9.24 49.77"/><path fill="#fff" d="M835.444 280.989H648.276a4.36 4.36 0 0 1-4.353-4.353V160.853a4.36 4.36 0 0 1 4.353-4.353h187.168a4.36 4.36 0 0 1 4.353 4.353v115.783a4.36 4.36 0 0 1-4.353 4.353"/><path fill="#3f3d56" d="M835.444 280.989H648.276a4.36 4.36 0 0 1-4.353-4.353V160.853a4.36 4.36 0 0 1 4.353-4.353h187.168a4.36 4.36 0 0 1 4.353 4.353v115.783a4.36 4.36 0 0 1-4.353 4.353M648.276 158.24a2.615 2.615 0 0 0-2.612 2.612v115.783a2.615 2.615 0 0 0 2.612 2.612h187.168a2.615 2.615 0 0 0 2.612-2.612V160.853a2.615 2.615 0 0 0-2.612-2.612Z"/><path fill="#ccc" d="M798.446 195.168H685.274a3.918 3.918 0 1 1 0-7.835h113.172a3.918 3.918 0 0 1 0 7.835m0 26.987H685.274a3.918 3.918 0 1 1 0-7.835h113.172a3.918 3.918 0 0 1 0 7.835"/><circle cx="788.363" cy="250.944" r="14" fill="#505bd6"/><path fill="#fff" d="M788.748 244.349v-1.334h.395v1.334a4.3 4.3 0 0 1 1.614.395 2.4 2.4 0 0 1 .922.768 1.8 1.8 0 0 1 .333 1.048 1.13 1.13 0 0 1-.259.755.8.8 0 0 1-.636.307.67.67 0 0 1-.491-.202.68.68 0 0 1-.202-.5.95.95 0 0 1 .079-.377l.158-.334a1.1 1.1 0 0 0 .079-.439 1.03 1.03 0 0 0-.21-.644 1.27 1.27 0 0 0-.597-.417 3.4 3.4 0 0 0-.79-.158v4.8l.088.052a8.7 8.7 0 0 1 2.22 1.676 4 4 0 0 1 .671 1.137 3.5 3.5 0 0 1 .241 1.259 3.06 3.06 0 0 1-.42 1.588 2.85 2.85 0 0 1-1.168 1.097 4.9 4.9 0 0 1-1.632.474v1.43h-.395v-1.404a4.4 4.4 0 0 1-1.667-.342 3.16 3.16 0 0 1-1.347-.965 2.2 2.2 0 0 1-.479-1.378 1.56 1.56 0 0 1 .308-.978.91.91 0 0 1 .745-.4.645.645 0 0 1 .667.666 1.3 1.3 0 0 1-.324.727 2.2 2.2 0 0 0-.242.402.9.9 0 0 0-.065.35 1.42 1.42 0 0 0 .311.88 2 2 0 0 0 .838.626 3.1 3.1 0 0 0 1.185.21h.07v-5.73l-.5-.29q-.711-.411-1.084-.684a4.5 4.5 0 0 1-.671-.596 2.88 2.88 0 0 1-.781-1.984 2.7 2.7 0 0 1 .333-1.311 2.6 2.6 0 0 1 .922-.979 3.75 3.75 0 0 1 1.78-.535m0 .193a2.7 2.7 0 0 0-.987.219 1.7 1.7 0 0 0-.734.71 2.17 2.17 0 0 0-.28 1.094 2.22 2.22 0 0 0 .41 1.305 2.7 2.7 0 0 0 .512.552 10 10 0 0 0 .992.648l.087.053Zm.395 11.899a2.7 2.7 0 0 0 .664-.14 1.8 1.8 0 0 0 .48-.281 2.2 2.2 0 0 0 .612-.856 2.95 2.95 0 0 0 .227-1.154 3.63 3.63 0 0 0-1.983-3.036Zm-81.198-52.952H520.776a4.36 4.36 0 0 1-4.353-4.353V83.353A4.36 4.36 0 0 1 520.776 79h187.168a4.36 4.36 0 0 1 4.353 4.353v115.783a4.36 4.36 0 0 1-4.353 4.353"/><path fill="#3f3d56" d="M707.944 203.489H520.776a4.36 4.36 0 0 1-4.353-4.353V83.353A4.36 4.36 0 0 1 520.776 79h187.168a4.36 4.36 0 0 1 4.353 4.353v115.783a4.36 4.36 0 0 1-4.353 4.353M520.776 80.74a2.615 2.615 0 0 0-2.612 2.612v115.783a2.615 2.615 0 0 0 2.612 2.612h187.168a2.615 2.615 0 0 0 2.612-2.612V83.353a2.615 2.615 0 0 0-2.612-2.612Z"/><path fill="#ccc" d="M670.946 117.668H557.774a3.918 3.918 0 1 1 0-7.835h113.172a3.918 3.918 0 0 1 0 7.835m0 26.987H557.774a3.918 3.918 0 1 1 0-7.835h113.172a3.918 3.918 0 0 1 0 7.835"/><circle cx="660.863" cy="173.444" r="14" fill="#505bd6"/><path fill="#fff" d="M661.248 166.849v-1.334h.395v1.334a4.3 4.3 0 0 1 1.614.395 2.4 2.4 0 0 1 .922.768 1.8 1.8 0 0 1 .333 1.048 1.13 1.13 0 0 1-.259.755.8.8 0 0 1-.636.307.67.67 0 0 1-.491-.202.68.68 0 0 1-.202-.5.95.95 0 0 1 .079-.377l.158-.334a1.1 1.1 0 0 0 .079-.439 1.03 1.03 0 0 0-.21-.644 1.27 1.27 0 0 0-.597-.417 3.4 3.4 0 0 0-.79-.158v4.8l.088.052a8.7 8.7 0 0 1 2.22 1.676 4 4 0 0 1 .671 1.137 3.5 3.5 0 0 1 .241 1.259 3.06 3.06 0 0 1-.42 1.588 2.85 2.85 0 0 1-1.168 1.097 4.9 4.9 0 0 1-1.632.474v1.43h-.395v-1.404a4.4 4.4 0 0 1-1.667-.342 3.16 3.16 0 0 1-1.347-.965 2.2 2.2 0 0 1-.479-1.378 1.56 1.56 0 0 1 .308-.978.91.91 0 0 1 .745-.4.645.645 0 0 1 .667.666 1.3 1.3 0 0 1-.324.727 2.2 2.2 0 0 0-.242.402.9.9 0 0 0-.065.35 1.42 1.42 0 0 0 .311.88 2 2 0 0 0 .838.626 3.1 3.1 0 0 0 1.185.21h.07v-5.73l-.5-.29q-.711-.411-1.084-.684a4.5 4.5 0 0 1-.671-.596 2.88 2.88 0 0 1-.781-1.984 2.7 2.7 0 0 1 .333-1.311 2.6 2.6 0 0 1 .922-.979 3.75 3.75 0 0 1 1.78-.535m0 .193a2.7 2.7 0 0 0-.987.219 1.7 1.7 0 0 0-.734.71 2.17 2.17 0 0 0-.28 1.094 2.22 2.22 0 0 0 .41 1.305 2.7 2.7 0 0 0 .512.552 10 10 0 0 0 .992.648l.087.053Zm.395 11.899a2.7 2.7 0 0 0 .664-.14 1.8 1.8 0 0 0 .48-.281 2.2 2.2 0 0 0 .612-.856 2.95 2.95 0 0 0 .227-1.154 3.63 3.63 0 0 0-1.983-3.036Z"/><path fill="#ffb6b6" d="M319.946 186.212a11.183 11.183 0 0 0-11.929 12.32L272.035 215.4l17.612 10.784 31.47-17.672a11.244 11.244 0 0 0-1.171-22.3M171.049 510.77l12.427-.001 5.912-47.932-18.341.001z"/><path fill="#2f2e41" d="m167.88 506.713 24.472-.001h.001a15.597 15.597 0 0 1 15.596 15.595v.507l-40.069.002Z"/><path fill="#ffb6b6" d="m234.459 510.77 12.427-.001 5.912-47.932-18.341.001z"/><path fill="#2f2e41" d="m231.29 506.713 24.472-.001h.001a15.597 15.597 0 0 1 15.596 15.595v.507l-40.069.002Zm11.47-244.554 6.307 13.579 11.371 121.438-8.839 104.378h-20.673L206.532 337.03l-11.458 160.734-27.894-1.126-5.355-217.92z"/><path fill="#e4e4e4" d="m142.249 150.094 26.15-10.638 36.908 2.07 32.813 11.957 10.947 122.255c-28.546 15.588-57.462 19.843-86.882 8.697l-27.304-79.628Z"/><path fill="#e4e4e4" d="m227.911 156.715 11.604-3.232s8.777-5.707 11.665 11.258 17.747 43.352 17.747 43.352l25.437-13.557 11.776 25.72-40.17 24.333-42.304-42.625Z"/><path fill="#ffb6b6" d="M164.26 116.805a26.61 26.61 0 1 1 48.699-21.461l.152.352a26.614 26.614 0 1 1-48.861 21.113Z" data-name="Path 40"/><path fill="#2f2e41" d="M200.385 92.452c5.533 1.004 14.095 4.487 18.847.4a23.3 23.3 0 0 0-8.623-6.307 5.3 5.3 0 0 1-1.785-1.009c-1.62-1.637-.368-4.458-1.11-6.672a5.72 5.72 0 0 0-3.936-3.246c-1.65-.493-3.377-.573-4.998-1.172-3.834-1.44-6.56-5.564-10.49-6.685-3.424-.99-6.87.549-9.825 2.345s-5.878 3.928-9.336 4.27c-2.583.235-4.219 4.484-6.812 4.609-5.435.264-5.134-3.318-5.536 2.392-.232 3.407-5.1 10.186-5.021 13.623.08 2.252-.318 4.482-.254 6.741a17.52 17.52 0 0 0 4.848 11.512c2.474 2.544 5.693 4.26 7.776 7.161 1.083 1.54 1.834 3.337 3.095 4.73s3.397 2.232 4.804 1.238 1.434-3.148 2.132-4.786a5.23 5.23 0 0 1 5.201-3.166 6.13 6.13 0 0 1 5 4.083c-.658-3.62-2.396-7.012-3.056-10.635s.2-7.95 3.32-9.365c1.34-.623 3.149-.79 3.687-2.227.33-.865.028-1.887.155-2.823.686-4.585 8.31-5.72 11.917-5.011" data-name="Path 72"/><path fill="#ffb6b6" d="M165.32 283.021a11.183 11.183 0 0 0-14.612-8.974l-24.268-31.47-6.71 19.532 24.075 26.89a11.244 11.244 0 0 0 21.515-5.978"/><path fill="#e4e4e4" d="m150.631 156.03-8.382-5.936s-19.177-1.098-21.967 14.647l-35.163 57.845 43.598 60.148 21.137-22.251-26.67-31.168 22.392-41.116Z"/><path fill="#3f3d56" d="M354.854 165.196h-.44v-12.047a6.973 6.973 0 0 0-6.972-6.973H321.92a6.973 6.973 0 0 0-6.973 6.973v66.09a6.973 6.973 0 0 0 6.973 6.973h25.523a6.973 6.973 0 0 0 6.973-6.972v-45.47h.44Z"/><path fill="#505bd6" d="M347.723 147.99h-3.331a2.474 2.474 0 0 1-2.29 3.408h-14.623a2.474 2.474 0 0 1-2.29-3.408h-3.112a5.207 5.207 0 0 0-5.207 5.207v65.994a5.207 5.207 0 0 0 5.207 5.207h25.646a5.207 5.207 0 0 0 5.207-5.207v-65.994a5.207 5.207 0 0 0-5.207-5.207"/><path fill="#fff" d="M577.944 124.489H390.776a4.36 4.36 0 0 1-4.353-4.353V4.353A4.36 4.36 0 0 1 390.776 0h187.168a4.36 4.36 0 0 1 4.353 4.353v115.783a4.36 4.36 0 0 1-4.353 4.353"/><path fill="#3f3d56" d="M577.944 124.489H390.776a4.36 4.36 0 0 1-4.353-4.353V4.353A4.36 4.36 0 0 1 390.776 0h187.168a4.36 4.36 0 0 1 4.353 4.353v115.783a4.36 4.36 0 0 1-4.353 4.353M390.776 1.74a2.615 2.615 0 0 0-2.612 2.612v115.783a2.615 2.615 0 0 0 2.612 2.612h187.168a2.615 2.615 0 0 0 2.612-2.612V4.353a2.615 2.615 0 0 0-2.612-2.612Z"/><path fill="#ccc" d="M540.946 38.668H427.774a3.918 3.918 0 1 1 0-7.835h113.172a3.918 3.918 0 0 1 0 7.835m0 26.987H427.774a3.918 3.918 0 1 1 0-7.835h113.172a3.918 3.918 0 0 1 0 7.835"/><circle cx="530.863" cy="94.444" r="14" fill="#505bd6"/><path fill="#fff" d="M531.248 87.849v-1.334h.395v1.334a4.3 4.3 0 0 1 1.614.395 2.4 2.4 0 0 1 .922.768 1.8 1.8 0 0 1 .333 1.048 1.13 1.13 0 0 1-.259.755.8.8 0 0 1-.636.307.67.67 0 0 1-.491-.202.68.68 0 0 1-.202-.5.95.95 0 0 1 .079-.377l.158-.334a1.1 1.1 0 0 0 .079-.439 1.03 1.03 0 0 0-.21-.644 1.27 1.27 0 0 0-.597-.417 3.4 3.4 0 0 0-.79-.158v4.8l.088.052a8.7 8.7 0 0 1 2.22 1.676 4 4 0 0 1 .671 1.137 3.5 3.5 0 0 1 .241 1.259 3.06 3.06 0 0 1-.42 1.588 2.85 2.85 0 0 1-1.168 1.097 4.9 4.9 0 0 1-1.632.474v1.43h-.395v-1.404a4.4 4.4 0 0 1-1.667-.342 3.16 3.16 0 0 1-1.347-.965 2.2 2.2 0 0 1-.479-1.378 1.56 1.56 0 0 1 .308-.978.91.91 0 0 1 .745-.4.645.645 0 0 1 .667.666 1.3 1.3 0 0 1-.324.727 2.2 2.2 0 0 0-.242.402.9.9 0 0 0-.065.35 1.42 1.42 0 0 0 .311.88 2 2 0 0 0 .838.626 3.1 3.1 0 0 0 1.185.21h.07v-5.73l-.5-.29q-.711-.411-1.084-.684a4.5 4.5 0 0 1-.671-.596 2.88 2.88 0 0 1-.781-1.984 2.7 2.7 0 0 1 .333-1.311 2.6 2.6 0 0 1 .922-.979 3.75 3.75 0 0 1 1.78-.535m0 .193a2.7 2.7 0 0 0-.987.219 1.7 1.7 0 0 0-.734.71 2.17 2.17 0 0 0-.28 1.094 2.22 2.22 0 0 0 .41 1.305 2.7 2.7 0 0 0 .512.552 10 10 0 0 0 .992.648l.087.053Zm.395 11.899a2.7 2.7 0 0 0 .664-.14 1.8 1.8 0 0 0 .48-.281 2.2 2.2 0 0 0 .612-.856 2.95 2.95 0 0 0 .227-1.154 3.63 3.63 0 0 0-1.983-3.036Z"/><path fill="#cacaca" d="M382 523.444H1a1 1 0 0 1 0-2h381a1 1 0 0 1 0 2"/></svg>