<svg xmlns="http://www.w3.org/2000/svg" viewBox="-40 0 480 480.047"><path fill="#e94f4f" d="M98.04 472.016a26.02 26.02 0 0 1-19.653-8.965 26 26 0 0 1-6.098-20.723L91.023 311.52h33v134.488c0 14.355-11.628 25.992-25.984 26.008zm0 0"/><path fill="#fec9a3" d="M344.023 296.016h-32a8 8 0 0 1-8-8v-56h-64v56a8 8 0 0 1-8 8h-39.03c-19.86 0-37.673 12.23-44.802 30.765l-24.8 48.57.16 69.665 52.472-69h18.313c-13.563 22.777-11.285 51.632 5.687 72v32h192v-136c0-26.512-21.492-48-48-48m0 0"/><path fill="#ffb531" d="M96.023 232.016h32v128c0 8.836-7.164 16-16 16s-16-7.164-16-16zm0 0"/><path fill="#e94f4f" d="m123.52 445.016 52.503-69h18.313c-13.563 22.777-11.285 51.632 5.687 72v32h192v-136c0-26.512-21.492-48-48-48h-24l-48 128-48-128h-31.03c-19.86 0-37.673 12.23-44.802 30.765l-24.8 48.57zm0 0"/><path fill="#e04646" d="M266.887 480.016h125.136v-136a47.3 47.3 0 0 0-1.734-12.059 246.58 246.58 0 0 1-123.402 148.059M144.023 334.934l-20.664 40.418.16 69.664 20.504-26.938zm0 0"/><path fill="#fec093" d="M304.023 264.453v-32.437h-64v32.437a71.42 71.42 0 0 0 64 0m0 0"/><path fill="#cf3a3a" d="M352.023 480.016h-16v-32a8 8 0 0 1 1.848-5.121c14.785-17.766 16.774-42.915 4.969-62.786l13.742-8.191c14.723 24.77 12.918 55.996-4.559 78.906zm0 0"/><path fill="#f26666" d="m208.023 296.016-16 40 32 8-8 24 56 56-48-128zm128 0 16 40-32 8 8 24-56 56 48-128zm0 0"/><path fill="#803f37" d="m242.023 344.016 30 80 30-80zm0 0"/><path fill="#cf3a3a" d="M264.023 448.016h16v16h-16zm0 0"/><path fill="#fec9a3" d="M99.223 304.016h41.601c6.184 0 11.2 5.015 11.2 11.199v25.601c0 6.184-5.016 11.2-11.2 11.2H99.223c-6.184 0-11.2-5.016-11.2-11.2v-25.601c0-6.184 5.016-11.2 11.2-11.2zm0 0"/><path fill="#feb784" d="M352.023 192.023h-8v-48h8c13.254 0 24 10.747 24 24s-10.746 24-24 24m0 0"/><path fill="#773730" d="M368.023 48.016c0 22.09-17.91 40-40 40s-40-17.91-40-40c0-22.094 17.91-40 40-40s40 17.906 40 40m0 0"/><path fill="#fec9a3" d="M272.023 256.016c-39.765 0-72-32.235-72-72V91.102c24-32 112-40 144 0v92.914c0 39.765-32.234 72-72 72m0 0"/><path fill="#fec093" d="M257.625 64.984a80.88 80.88 0 0 1 54.398 26.11v92.922c-.023 33.582-23.257 62.687-56 70.152a71.817 71.817 0 0 0 88-70.152V91.094c-18.12-22.649-54.183-29.88-86.398-26.11m0 0"/><path fill="#f7a468" d="M272.023 216.016c-13.253 0-24-10.746-24-24h16a8 8 0 0 0 16 0h16c0 13.254-10.746 24-24 24m0 0"/><path fill="#803f37" d="M276.215 40.016h-8.383c-45.227-1.028-82.734 34.773-83.809 80v24h8.383a152.56 152.56 0 0 0 111.617-48 134.76 134.76 0 0 0 36.848 68.847l3.152 3.153 16-24v-24c-1.074-45.227-38.582-81.028-83.808-80m0 0"/><path fill="#feb784" d="M192.023 144.016h8v48h-8c-13.253 0-24-10.746-24-24s10.747-24 24-24m0 0"/><path fill="#4db7e5" d="M220.023 136.016h20c11.047 0 20 8.953 20 20s-8.953 20-20 20h-20c-11.046 0-20-8.953-20-20s8.954-20 20-20m84 0h20c11.047 0 20 8.953 20 20s-8.953 20-20 20h-20c-11.046 0-20-8.953-20-20s8.954-20 20-20m0 0"/><path fill="#e94f4f" d="M324.023 128.016h-20a27.99 27.99 0 0 0-25.191 16H265.23a28 28 0 0 0-25.207-16h-20c-15.464 0-28 12.535-28 28s12.536 28 28 28h20c13.88-.04 25.63-10.258 27.594-24h8.797c1.965 13.746 13.723 23.968 27.61 24h20c15.464 0 28-12.536 28-28s-12.536-28-28-28zm-84 40h-20c-6.628 0-12-5.375-12-12 0-6.63 5.372-12 12-12h20c6.63 0 12 5.37 12 12 0 6.625-5.37 12-12 12m84 0h-20c-6.628 0-12-5.375-12-12 0-6.63 5.372-12 12-12h20c6.63 0 12 5.37 12 12 0 6.625-5.37 12-12 12m0 0"/><path fill="#ffb531" d="M216.023 160.016c0 57.437-46.562 104-104 104s-104-46.563-104-104 46.563-104 104-104 104 46.562 104 104m0 0"/><path fill="#48add9" d="M184.023 160.016c0 39.765-32.234 72-72 72s-72-32.235-72-72 32.235-72 72-72 72 32.234 72 72m0 0"/><path fill="#4db7e5" d="M168.023 160.016c0 30.925-25.07 56-56 56s-56-25.075-56-56c0-30.93 25.07-56 56-56s56 25.07 56 56m0 0"/><path fill="#e0e0de" d="M40.023 160.016c34.825-42.664 109.176-42.664 144 0-34.824 42.672-109.175 42.672-144 0m0 0"/><path fill="#d6d6d4" d="M146.129 133.957a149.23 149.23 0 0 1-65.602 53.09c35.895 11.64 79.258 2.664 103.496-27.031a85.43 85.43 0 0 0-37.894-26.059m0 0"/><path fill="#348fd9" d="M144.023 160.016c0 17.672-14.328 32-32 32-17.671 0-32-14.328-32-32s14.329-32 32-32c17.672 0 32 14.328 32 32m0 0"/><path fill="#3086cd" d="M130.863 134.27a84.68 84.68 0 0 1-42.457 47.203 31.913 31.913 0 1 0 42.457-47.203m0 0"/><path fill="#3d4d63" d="M104.023 152.016h16v16h-16zm0 0"/><path d="M336.023 448.016v32h16v-29.2c17.473-22.906 19.278-54.132 4.559-78.898l-13.742 8.184c11.805 19.87 9.816 45.027-4.969 62.793a8 8 0 0 0-1.848 5.12zm-40-256h-16a8 8 0 0 1-16 0h-16c0 13.254 10.747 24 24 24s24-10.746 24-24m0 0"/><path d="M206.422 77.816a77.49 77.49 0 0 1 61.441-29.8h8.32c3.45.007 6.899.23 10.32.664q.523.145 1.056.215a76.01 76.01 0 0 1 55.289 36.718 68.36 68.36 0 0 1 9.175 34.403v21.504l-2.289 3.449a28.04 28.04 0 0 0-25.71-16.953h-.32a126.2 126.2 0 0 1-11.833-33.543 8 8 0 0 0-13.992-3.586 130.3 130.3 0 0 1-32.8 25.746 136 136 0 0 1-25.263 11.597 8 8 0 0 0-1.05.274 154 154 0 0 1-8.797 2.633l4.11 15.468c2.663-.71 5.233-1.496 7.76-2.3a11.83 11.83 0 0 1 7.505 19.199c-.106.129-.735.879-.801 1a12.07 12.07 0 0 1-8.52 3.512h-8v16h8a28.16 28.16 0 0 0 19.793-8.16 18 18 0 0 0 1.934-2.235 28 28 0 0 0 5.93-13.598h8.75c1.968 13.739 13.715 23.954 27.593 23.993h20c4.16-.04 8.258-1 12-2.817v2.817a63.65 63.65 0 0 1-35.574 57.328c-26.867 13.328-59.387 6.199-78.21-17.145l-12.43 10.07a81.1 81.1 0 0 0 22.214 18.876v34.87h-39.039a56.23 56.23 0 0 0-34.28 11.864 7.86 7.86 0 0 0-6.68-3.863h-16v-26.657c55.855-12.254 93.511-64.617 87.347-121.468s-54.164-99.93-111.348-99.93C54.84 47.96 6.84 91.039.676 147.89s31.492 109.214 87.347 121.468v26.657a8 8 0 0 0-8 8v27.414L64.343 441.2a33.92 33.92 0 0 0 13.044 31.933 33.927 33.927 0 0 0 54.324-24.055l.25.184 48.101-65.246h1.672a70.67 70.67 0 0 0 10.29 66.8v29.2h16v-32a8 8 0 0 0-1.848-5.121c-14.785-17.766-16.774-42.922-4.969-62.793 1.469-2.47 1.5-5.54.078-8.04s-4.074-4.046-6.95-4.046h-18.312a7.99 7.99 0 0 0-6.398 3.254l-37.602 50.953v-49.114c2.606-3.867 4-8.43 4-13.093h16a8 8 0 0 0 8-8v-30.52a40.27 40.27 0 0 1 32.961-17.48h3.2l-11.618 29.023a8 8 0 0 0 .309 6.617 7.98 7.98 0 0 0 5.187 4.117l23.618 5.907-5.266 15.8a8 8 0 0 0 1.93 8.192l56 56c.12.11.281.16.406.262.25.261.52.504.8.73l.083.07c.285.16.586.297.894.41q.324.176.664.329c.16.054.297.132.465.191a8.2 8.2 0 0 0 1.992.305c.102 0 .2.047.313.047.11 0 .207-.04.312-.047a8.2 8.2 0 0 0 1.989-.305c.168-.059.304-.137.465-.191q.34-.153.664-.328a6.5 6.5 0 0 0 .898-.41l.078-.07c.281-.228.551-.47.801-.731.129-.102.289-.153.406-.262l56-56a8 8 0 0 0 1.93-8.192l-5.266-15.8 23.617-5.907a7.996 7.996 0 0 0 5.497-10.734l-11.329-28.625c20.383 2.012 35.934 19.121 36 39.602v136h16v-136c-.035-30.914-25.086-55.965-56-56h-32v-34.961a79.1 79.1 0 0 0 38.215-53.04h1.785c14.524.114 27.29-9.597 31.051-23.62 3.766-14.028-2.422-28.825-15.05-35.997v-20.382a83.9 83.9 0 0 0-8.215-36.098c15.074-13.305 20.25-34.598 12.964-53.336S347.29-.363 327.183.008c-20.101.37-37.835 13.242-44.425 32.238a96 96 0 0 0-6.574-.23h-8.32a93.54 93.54 0 0 0-74.2 36.093zm-190.399 82.2c0-53.02 42.98-96 96-96s96 42.98 96 96-42.98 96-96 96c-52.996-.059-95.941-43.004-96-96m96 112c2.704 0 5.344-.215 8-.41v24.41h-16v-24.41c2.657.195 5.297.41 8 .41m-14 192a18 18 0 0 1-13.613-6.196 18 18 0 0 1-4.219-14.347l10.399-72.868a23.09 23.09 0 0 0 25.433 12.977v62.402c.004 9.946-8.05 18.016-18 18.032m19.93-98.73a7.83 7.83 0 0 1-5.93 2.73 8 8 0 0 1-8-8h16a7.55 7.55 0 0 1-2.07 5.27m26.07-21.27h-48v-32h48zm152-83.817v27.817a16.005 16.005 0 0 0 12.602 15.617l-12.145 32.383h-48.914l-12.144-32.383a16.005 16.005 0 0 0 12.601-15.617v-27.817a77.35 77.35 0 0 0 48 0m-42.457 91.817h36.914l-18.457 49.207zM231.04 340.16a8 8 0 0 0-5.078-3.914l-23.106-5.766 10.586-26.464h5.04l33.078 88.222-26.399-26.398 6.399-19.305a7.98 7.98 0 0 0-.52-6.375m87.047-3.914c-2.16.543-4 1.961-5.074 3.914a8 8 0 0 0-.57 6.383l6.398 19.305-26.399 26.398 33.125-88.23h5.043l10.582 26.464zM284.207 136.2a27.8 27.8 0 0 0-5.398 7.817h-13.602a28.1 28.1 0 0 0-4.672-6.985c4.258-1.992 8.457-4.12 12.61-6.55a161.8 161.8 0 0 0 26.582-18.946 145 145 0 0 0 6.328 16.48h-2.032a28.16 28.16 0 0 0-19.816 8.184m50.473 25.414a13.3 13.3 0 0 1-2.16 2.875 12.07 12.07 0 0 1-8.497 3.528h-20c-6.628 0-12-5.375-12-12 0-6.63 5.372-12 12-12h20a12.08 12.08 0 0 1 10.239 5.828 12.09 12.09 0 0 1 .418 11.77zm17.343 22.403v-13.602l9.864-14.848q.756.52 1.441 1.13a16.01 16.01 0 0 1 3.477 17.437 16.01 16.01 0 0 1-14.782 9.883m-24-168a32 32 0 0 1 23.504 53.703 92.28 92.28 0 0 0-52.582-34.817 31.86 31.86 0 0 1 29.078-18.886m0 0"/><path d="M264.023 448.016h16v16h-16zm-72-288c0-44.184-35.816-80-80-80s-80 35.816-80 80 35.817 80 80 80c44.165-.051 79.954-35.84 80-80m-104 0c0-13.254 10.747-24 24-24s24 10.746 24 24-10.746 24-24 24-24-10.746-24-24m-12.183 16.8a77.8 77.8 0 0 1-25.074-16.8 77.8 77.8 0 0 1 25.074-16.801 38.77 38.77 0 0 0 0 33.55zm72.367-33.601a77.8 77.8 0 0 1 25.074 16.8 77.8 77.8 0 0 1-25.074 16.801 38.78 38.78 0 0 0 0-33.554zm-36.184-47.2c26.98.051 51.036 17.008 60.153 42.4a104.2 104.2 0 0 0-60.153-18.4 104.2 104.2 0 0 0-60.152 18.4c9.117-25.392 33.172-42.349 60.152-42.4m-60.152 85.598a104.16 104.16 0 0 0 60.152 18.403 104.16 104.16 0 0 0 60.153-18.403c-9.094 25.41-33.168 42.364-60.153 42.364s-51.058-16.954-60.152-42.364m0 0"/><path d="M104.023 152.016h16v16h-16zm0 0"/></svg>