<svg xmlns="http://www.w3.org/2000/svg" viewBox="0 0 512 512"><path fill="#70432c" d="m358.396 170.667 17.067-59.733V102.4c0-14.14-11.46-25.6-25.6-25.6 4.727-14.123-2.884-29.406-17.007-34.133a26.98 26.98 0 0 0-17.126 0l-1.792-5.376a29.71 29.71 0 0 0-28.075-20.224c-12.715 0-25.6 4.949-29.867 17.067 0 0 0-25.6-29.867-25.6-16.495 0-29.867 13.372-29.867 29.867v4.267c-14.123-4.727-29.406 2.884-34.133 17.007a26.98 26.98 0 0 0 0 17.126c-14.14 0-25.6 11.46-25.6 25.6v8.533l17.067 68.267h8.533l17.067-93.867a351.7 351.7 0 0 0 76.8 8.533 351.8 351.8 0 0 0 76.8-8.533l17.067 85.333z"/><path fill="#5c3724" d="M162.129 76.8c-14.14 0-25.6 11.46-25.6 25.6v8.533l17.067 68.267h8.533l17.067-93.867a310 310 0 0 0 30.635 5.461 166.7 166.7 0 0 1-13.568-48.128c-14.199-4.659-29.474 3.081-34.133 17.271a27.1 27.1 0 0 0-.001 16.863"/><path fill="#fedac6" d="M255.996 401.067c31.044.017 59.11-18.483 71.339-47.019l4.096-9.472-9.387-1.28c-8.55-1.118-14.925-8.439-14.848-17.067V281.6h-102.4v44.8c.077 8.627-6.298 15.949-14.848 17.067l-9.387 1.28 4.096 9.472c12.28 28.467 40.337 46.89 71.339 46.848"/><path fill="#de4c3c" d="m375.974 350.464-44.544-5.888-4.096 9.472c-16.939 39.398-62.609 57.609-102.007 40.67a77.7 77.7 0 0 1-40.67-40.67l-4.096-9.472-44.544 5.888c-33.903 4.531-59.221 33.459-59.221 67.669V512h358.4v-93.867c0-34.21-25.319-63.138-59.222-67.669"/><path fill="#f5c4b0" d="M307.196 328.875V281.6h-102.4v47.275c38.4 16.64 64 16.64 102.4 0"/><path fill="#c94536" d="M76.796 418.133V512h34.133V359.083a68.27 68.27 0 0 0-34.133 59.05"/><path fill="#fedac6" d="M110.929 469.333h34.133V512h-34.133z"/><path fill="#f5c4b0" d="M76.796 469.333h34.133V512H76.796z"/><path fill="#fedac6" d="M366.929 469.333h68.267V512h-68.267zm-17.067-324.266h-8.533v51.2h8.533c14.14 0 25.6-11.46 25.6-25.6s-11.46-25.6-25.6-25.6"/><path fill="#f5c4b0" d="M136.529 179.2c0 14.14 11.46 25.6 25.6 25.6h8.533v-51.2h-8.533c-14.14 0-25.6 11.46-25.6 25.6"/><path fill="#fedac6" d="m349.862 153.6-7.424 79.957a42.7 42.7 0 0 1-10.24 24.405L289.276 307.2a25.6 25.6 0 0 1-19.285 8.533h-27.989a25.58 25.58 0 0 1-19.285-8.533l-42.667-49.067a42.7 42.7 0 0 1-10.24-24.405l-7.68-80.128 17.067-68.267a700.3 700.3 0 0 0 153.6 0z"/><path fill="#f5c4b0" d="M199.249 87.296c-6.741-.597-13.397-1.195-20.053-1.963L162.129 153.6l7.424 79.957a42.7 42.7 0 0 0 10.24 24.405l22.443 25.6a847.8 847.8 0 0 1-2.987-196.266"/><path d="M349.862 204.8h-8.533v-17.067h8.533c9.412 0 17.067-7.654 17.067-17.067s-7.654-17.067-17.067-17.067h-8.533v-17.067h8.533c18.825 0 34.133 15.309 34.133 34.133S368.687 204.8 349.862 204.8m-179.2 8.533h-8.533c-18.825 0-34.133-15.309-34.133-34.133s15.309-34.133 34.133-34.133h8.533v17.067h-8.533c-9.412 0-17.067 7.654-17.067 17.067s7.654 17.067 17.067 17.067h8.533zm93.867 8.534h-25.6a8.53 8.53 0 0 1-8.389-10.078l11.349-61.867 16.785 3.081-9.506 51.797h15.36zm-34.133 17.066h51.2V256h-51.2z"/><path d="M241.737 324.267c-9.643 0-18.901-4.13-25.378-11.375l-42.743-49.161c-7.159-8.286-11.409-18.415-12.305-29.303l-7.671-80.017a8.6 8.6 0 0 1 .213-2.884L170.92 83.26a8.53 8.53 0 0 1 9.216-6.409c50.338 5.555 101.376 5.547 151.731 0 4.139-.486 8.166 2.261 9.207 6.409l17.067 68.267c.23.93.307 1.903.222 2.859l-7.424 79.957c-.887 10.803-5.146 20.932-12.279 29.193l-42.94 49.263c-6.562 7.339-15.821 11.469-25.532 11.469h-28.186zm-70.972-170.018 7.543 78.669c.606 7.373 3.439 14.123 8.201 19.635l42.65 49.05c3.191 3.567 7.697 5.504 12.783 5.598h28.203c4.915 0 9.549-2.065 12.791-5.692l42.846-49.152c4.745-5.487 7.578-12.237 8.166-19.499l7.296-78.601-14.916-59.665a710.5 710.5 0 0 1-140.638 0z"/><circle cx="204.796" cy="162.133" r="17.067"/><circle cx="298.662" cy="162.133" r="17.067"/><path d="m241.002 238.664-34.13 8.54-4.143-16.557 34.131-8.54zm68.252-8.018-4.138 16.555-34.13-8.531 4.14-16.556zm-172.605-67.105-8.533-51.2a8 8 0 0 1-.119-1.408V102.4c0-15.386 10.231-28.425 24.243-32.674a35.7 35.7 0 0 1 1.792-12.766c3.012-8.986 9.344-16.265 17.835-20.497a35.7 35.7 0 0 1 16.273-3.738C190.903 14.225 206.886 0 226.129 0c17.741 0 27.682 7.817 32.973 16.341 6.869-5.035 16.077-7.808 26.761-7.808a38.21 38.21 0 0 1 35.541 24.329c4.762-.367 9.609.188 14.157 1.715 8.994 3.012 16.273 9.344 20.506 17.826 2.714 5.461 3.968 11.392 3.712 17.331 14.003 4.258 24.218 17.289 24.218 32.666v8.533c0 .563-.06 1.118-.171 1.673l-8.533 42.667-16.734-3.354 8.371-41.83V102.4c0-9.412-7.654-17.067-17.067-17.067a8.55 8.55 0 0 1-6.929-3.55 8.52 8.52 0 0 1-1.161-7.697c1.57-4.668 1.22-9.66-.973-14.071a18.32 18.32 0 0 0-10.65-9.259 18.56 18.56 0 0 0-11.708 0 8.6 8.6 0 0 1-6.519-.452 8.56 8.56 0 0 1-4.284-4.941l-1.792-5.376A21.15 21.15 0 0 0 285.845 25.6c-4.164 0-18.082.819-21.803 11.366a8.51 8.51 0 0 1-9.489 5.581 8.536 8.536 0 0 1-7.091-8.414c-.085-3.934-1.886-17.067-21.333-17.067-11.759 0-21.333 9.574-21.333 21.333v4.267a8.54 8.54 0 0 1-3.55 6.929 8.55 8.55 0 0 1-7.689 1.169c-9.668-3.243-20.105 1.988-23.33 11.622a18.56 18.56 0 0 0 0 11.708 8.537 8.537 0 0 1-8.098 11.239c-9.412 0-17.067 7.654-17.067 17.067v7.825l8.414 50.5zm110.813 126.592h17.067V307.2h-17.067zm-8.967-5.818-8.537 25.596-16.189-5.4 8.537-25.595zm59.713 20.2-16.183 5.394-8.532-25.599 16.183-5.394zM85.329 512H68.262v-93.867c0-38.315 28.638-71.04 66.628-76.126l53.931-7.168c4.284-.563 7.475-4.233 7.441-8.533v-36.173h17.067v36.096c.111 12.834-9.463 23.842-22.272 25.523l-53.914 7.168c-29.542 3.951-51.814 29.406-51.814 59.213zm358.4 0h-17.067v-93.867c-.077-29.705-22.349-55.1-51.823-59.042l-53.914-7.168c-12.791-1.664-22.366-12.672-22.255-25.6v-36.19h17.067V326.4c-.043 4.386 3.149 8.047 7.424 8.61l53.939 7.168c37.897 5.069 66.543 37.709 66.637 75.938V512z"/><path d="M256.038 409.6h-.094a85.98 85.98 0 0 1-79.13-52.19l-5.461-12.706 15.684-6.733 5.461 12.715a68.96 68.96 0 0 0 63.454 41.847h.077a68.99 68.99 0 0 0 63.471-41.847l5.461-12.715 15.684 6.733-5.461 12.715a86.02 86.02 0 0 1-79.146 52.181m-119.509 34.133h17.067V512h-17.067z"/><path d="M76.796 460.8h68.267v17.067H76.796zm281.6-17.067h17.067V512h-17.067z"/><path d="M366.929 460.8h68.267v17.067h-68.267z"/></svg>