<svg xmlns="http://www.w3.org/2000/svg" viewBox="0 0 512 512"><g data-name="Filled outline"><path fill="#95573a" d="M312.011 352a7.99 7.99 0 0 1-7.164-4.422L256 249.887l-48.844 97.691a8 8 0 1 1-14.312-7.156l56-112c2.719-5.422 11.594-5.422 14.312 0l56 112A8 8 0 0 1 312.011 352m-176 0a7.99 7.99 0 0 1-7.164-4.422L80 249.887l-48.841 97.691a8 8 0 1 1-14.312-7.156l56-112c2.719-5.422 11.594-5.422 14.312 0l56 112A8 8 0 0 1 136.011 352"/><path fill="#ffb531" d="M216 456a32 32 0 0 0-32-32h-32a32 32 0 0 0-32 32 32 32 0 0 0-32 32h160a32 32 0 0 0-32-32"/><path fill="#ffa912" d="M216 456a32 32 0 0 0-32-32h-32a31.7 31.7 0 0 0-8 1.131A31.926 31.926 0 0 1 168 456a32 32 0 0 1 32 32h48a32 32 0 0 0-32-32"/><path fill="#ffb531" d="M16 344h128a32 32 0 0 1-32 32H48a32 32 0 0 1-32-32"/><path fill="#ffa912" d="M112 344c0 17.673-22.327 32-40 32h40a32 32 0 0 0 32-32z"/><path fill="#f7a116" d="M168 239.969a51.8 51.8 0 0 1-21.406-4.578l-18.047-8.219a36.18 36.18 0 0 0-31.758 1.1 51.94 51.94 0 0 1-39.766 4l-3.351-1.016 4.656-15.313 3.344 1.016a35.8 35.8 0 0 0 27.445-2.723 51.82 51.82 0 0 1 46.063-1.625l18.047 8.219a36.1 36.1 0 0 0 29.554 0l18.032-8.219a51.8 51.8 0 0 1 46.07 1.625 35.82 35.82 0 0 0 27.453 2.723l3.336-1.016 4.656 15.313-3.344 1.016a51.94 51.94 0 0 1-39.773-4 36.19 36.19 0 0 0-31.766-1.1l-18.031 8.219A51.8 51.8 0 0 1 168 239.969"/><path fill="#ffb531" d="M192 208a24 24 0 1 0-40 17.771V424h32V225.771A23.85 23.85 0 0 0 192 208"/><rect width="112" height="16" x="112.003" y="448" fill="#f7a116" rx="8"/><path fill="#fec9a3" d="M296 264v-56h80v56l24 24-64 168-64-168z"/><path fill="#bfbfbd" d="m400 288-64 168-64-168 24-24 40 40 40-40z"/><path fill="#bfbfbd" d="m272 288 64 168 64-168-24-24-40 40-40-40z"/><path fill="#95573a" d="M352 288v168h-32V288l16 16z"/><path fill="#8f4d2e" d="M352 383.25V456h-32v-44.37c10.91-8.9 21.58-18.3 32-28.38"/><path fill="#e0e0de" d="m336 304-40.09 46.77L272 288l24-24zm64-16-23.91 62.77L336 304l40-40z"/><path fill="#feb784" d="M376 243.859V224h-80v19.859a71.96 71.96 0 0 0 80 0m32-134.273h8a24 24 0 0 1 24 24 24 24 0 0 1-24 24h-8zm-144 0h-8a24.07 24.07 0 0 0-24 24 24.07 24.07 0 0 0 24 24h8.48"/><path fill="#fec9a3" d="M408 104v64a72 72 0 1 1-144 0v-64a72.006 72.006 0 0 1 72-72c.2 0 .4 0 .6.01A71.993 71.993 0 0 1 408 104"/><path fill="#fec093" d="M408 104v64a72.04 72.04 0 0 1-95.71 68A88.03 88.03 0 0 0 374 152v-48a88.03 88.03 0 0 0-37.4-71.99A71.993 71.993 0 0 1 408 104"/><circle cx="300" cy="124" r="12" fill="#7a432a"/><circle cx="372" cy="124" r="12" fill="#7a432a"/><path fill="#7a432a" d="M408 77.59v32a194.4 194.4 0 0 1-29.08-48h-.01a120 120 0 0 1-13.62 4.19A122.4 122.4 0 0 1 336 69.33a122.8 122.8 0 0 1-42.91-7.74 194.7 194.7 0 0 1-29.09 48v-32A54.76 54.76 0 0 1 270.7 51 43.1 43.1 0 0 1 288 33.61a124.3 124.3 0 0 1 35.95-9.02q6.015-.6 12.05-.59a124.6 124.6 0 0 1 48 9.61c14.12 7.41 24 24.3 24 43.98"/><path fill="#f7a468" d="M326.891 184H312v-16h14.891c10.951 0 21.549-2.519 29.078-6.91l8.062 13.82c-10.049 5.862-23.238 9.09-37.14 9.09"/><path fill="#3d4d63" d="M488 343.23V496H184V343.23a39.994 39.994 0 0 1 30.3-38.8L248 296l24-8 64 168 64-168 24 8 33.7 8.43a39.994 39.994 0 0 1 30.3 38.8"/><path fill="#374559" d="M488 345.82V496H271.89c73.3-21.25 162.1-64.11 216.11-150.18"/><path fill="#22303d" d="M328 456h16v40h-16zm-32 8h16v16h-16zm-64-40h16v72h-16zm192 0h16v72h-16z"/><path fill="#4c5d72" d="m248 296-8 80h32l-8 32 72 48-64-168zm176 0 8 80h-32l8 32-72 48 64-168z"/><path fill="#743b20" d="M408 77.59v32a194.4 194.4 0 0 1-29.08-48h-.01a120 120 0 0 1-13.62 4.19 88.42 88.42 0 0 0-41.34-41.19q6.015-.6 12.05-.59a124.6 124.6 0 0 1 48 9.61c14.12 7.41 24 24.3 24 43.98"/><path d="m459.642 296.664-55.32-15.656L384 260.686v-28.694A79.9 79.9 0 0 0 416 168v-2.414a32 32 0 0 0 0-64v-24c0-22-11.1-42.048-28.283-51.063q-.312-.163-.638-.3a133.54 133.54 0 0 0-102.158 0q-.325.135-.638.3C267.1 35.54 256 55.584 256 77.588v24a32 32 0 1 0 0 64V168a79.87 79.87 0 0 0 17.011 49.32 35.75 35.75 0 0 1-26.136-3.091 51.94 51.94 0 0 0-46.051-1.62l-1.265.577A31.4 31.4 0 0 0 200 208a32 32 0 0 0-64 0 31.4 31.4 0 0 0 .441 5.186l-1.266-.577a51.77 51.77 0 0 0-46.055 1.623 36.1 36.1 0 0 1-27.462 2.718l-3.349-1.01-4.618 15.32 3.328 1a51.8 51.8 0 0 0 12.81 2.19L16.845 340.422h.006A7.95 7.95 0 0 0 16 344a40.045 40.045 0 0 0 40 40h48a40.045 40.045 0 0 0 40-40 7.95 7.95 0 0 0-.851-3.575h.006L88.818 231.748a50 50 0 0 0 7.978-3.477 36.18 36.18 0 0 1 31.749-1.1L144 234.209V416.8a40.015 40.015 0 0 0-31.325 31.876A39.99 39.99 0 0 0 80 488a8 8 0 0 0 8 8h104V343.231a31.954 31.954 0 0 1 24.239-31.044l22.669-5.668-6.868 68.681A8 8 0 0 0 240 384h21.754l-5.515 22.06a8 8 0 0 0 3.323 8.6L328 460.281V496h16v-35.719l68.438-45.625a8 8 0 0 0 3.323-8.6L410.246 384H432a8 8 0 0 0 7.96-8.8l-6.869-68.685 22.67 5.668A31.954 31.954 0 0 1 480 343.231V496h16V343.231a47.93 47.93 0 0 0-36.358-46.567M104 368H56a24.04 24.04 0 0 1-22.629-16h93.258A24.04 24.04 0 0 1 104 368m-67.056-32L80 249.889 123.056 336zm198.562-45.123L256 249.889l14.266 28.531-2.588 2.588zM328 325.626l8-9.333 8 9.333v86.9l-8 21-8-21zm-16 44.9-6.919-18.164 6.919-8.07zm48 0v-26.234l6.919 8.072zm-61.4-35.184-17.277-45.35L296 275.314l29.1 29.1zm74.806 0L346.9 304.418l29.1-29.1 14.68 14.68zM368 260.686l-32 32-32-32v-19.355a80.1 80.1 0 0 0 64 0zm-80-28.694v28.694l-5.809 5.809-16.02-32.041a51.8 51.8 0 0 0 12.788-2.184l6.872-1.961q1.069.86 2.169 1.683m144-98.406a16.02 16.02 0 0 1-16 16v-32a16.02 16.02 0 0 1 16 16m-160-56c0-15.994 7.611-30.369 19.419-36.736a117.46 117.46 0 0 1 89.162 0C392.389 47.219 400 61.594 400 77.588v7.267a195 195 0 0 1-13.73-26.415 8 8 0 0 0-10.15-4.347 114.86 114.86 0 0 1-80.239 0 8 8 0 0 0-10.15 4.348A195 195 0 0 1 272 84.856zm-32 56a16.02 16.02 0 0 1 16-16v32a16.02 16.02 0 0 1-16-16m32-21.179a200.6 200.6 0 0 0 25.407-40.9 130.87 130.87 0 0 0 77.188 0 200.6 200.6 0 0 0 25.4 40.9V168a64 64 0 1 1-128 0zM168 192a16.02 16.02 0 0 1 16 16 15.78 15.78 0 0 1-5.354 11.828 8 8 0 0 0-2.646 5.943V416h-16V225.771a8 8 0 0 0-2.646-5.943A15.78 15.78 0 0 1 152 208a16.02 16.02 0 0 1 16-16m-32.973 247.027A23.85 23.85 0 0 1 152 432h24v16h-46.643a23.9 23.9 0 0 1 5.67-8.973M97.357 480A24.04 24.04 0 0 1 120 464h56v16zM192 307.443v-73.234l15.455-7.038A35.9 35.9 0 0 1 222.23 224a35.5 35.5 0 0 1 16.971 4.269 50.3 50.3 0 0 0 7.979 3.483l-32.118 64.236-2.7.676A47.9 47.9 0 0 0 192 307.443m81.129 97.028 6.632-26.531A8 8 0 0 0 272 368h-23.16l6.6-66.049 11.81-3.936 52.361 137.447zM400 368a8 8 0 0 0-7.761 9.94l6.632 26.531-46.486 30.991 52.361-137.447 11.81 3.936L423.16 368z"/><path d="M300 136a12 12 0 1 0-12-12 12.013 12.013 0 0 0 12 12m72 0a12 12 0 1 0-12-12 12.013 12.013 0 0 0 12 12m-60 48h14.891c13.9 0 27.091-3.228 37.14-9.09l-8.062-13.82c-7.529 4.391-18.127 6.91-29.078 6.91H312zm-16 280h16v16h-16zm-64-40h16v72h-16zm192 0h16v72h-16z"/></g></svg>