<svg xmlns="http://www.w3.org/2000/svg" width="33" height="32" fill="none" viewBox="0 0 33 32"><g fill-rule="evenodd" clip-path="url(#a)" clip-rule="evenodd"><path fill="#B7F0EF" d="M17 7.87a2.91 2.91 0 0 1 2.343-2.853l10.182-2.02A2.91 2.91 0 0 1 33 5.852v16.283a2.91 2.91 0 0 1-2.343 2.854l-10.182 2.02A2.91 2.91 0 0 1 17 24.153z" opacity=".7"/><path fill="#87E6E5" d="M1 5.852A2.91 2.91 0 0 1 4.475 3l10.182 2.02A2.91 2.91 0 0 1 17 7.871v16.283a2.91 2.91 0 0 1-3.475 2.854l-10.182-2.02A2.91 2.91 0 0 1 1 22.136z"/><path fill="#61C1FD" d="M15.543 5.713s1.273.25 1.857.864c.585.613 1.052 2.454 1.052 2.454v17.932c0 1.852.925 4.454.925 4.454L17.4 28.895l-1.142 2.522s-.715-2.34-.715-4.295z"/></g><defs><clipPath id="a"><path fill="#fff" d="M.5 0h32v32H.5z"/></clipPath></defs></svg>